<svg width="676" height="149" viewBox="0 0 676 149" fill="none" xmlns="http://www.w3.org/2000/svg">
<path fill-rule="evenodd" clip-rule="evenodd" d="M2.22086 52.9712C0.845943 53.7706 0 55.241 0 56.8314V92.0191C0 93.6095 0.845943 95.0798 2.22086 95.8792L48 122.495V122.355L93.7791 95.7396C95.154 94.9403 95.9999 93.4699 95.9999 91.8795V58.1429C95.9999 56.4212 94.1336 55.3475 92.6453 56.2128L50.2208 80.8782C48.8459 81.6775 47.9999 83.1479 47.9999 84.7383V91.2391L3.72001 65.495L48 39.7508V30.2359C48 28.5143 46.1337 27.4405 44.6453 28.3058L2.22086 52.9712ZM62.2296 85.1954C61.8859 85.3953 61.6744 85.7629 61.6744 86.1605V89.0132C61.6744 89.4436 62.141 89.7121 62.5131 89.4958L85.1192 76.3527C85.4629 76.1528 85.6744 75.7852 85.6744 75.3876V72.5349C85.6744 72.1045 85.2078 71.836 84.8357 72.0524L62.2296 85.1954Z" fill="#2F80ED"/>
<path d="M32 75.436C32 73.8456 32.8459 72.3752 34.2208 71.5759L76.6453 46.9105C78.1336 46.0452 80 47.1189 80 48.8406V58.3554L32 86.2624V75.436Z" fill="#2F80ED"/>
<path d="M16 66.1337C16 64.5433 16.8459 63.0729 18.2208 62.2736L60.6453 37.6082C62.1337 36.7429 64 37.8166 64 39.5383V49.0531L16 76.9601V66.1337Z" fill="#2F80ED"/>
<path d="M143.154 107.814C139.248 107.814 135.5 107.183 131.909 105.922C128.381 104.598 125.263 102.643 122.554 100.057C119.908 97.4081 117.798 94.1286 116.223 90.2185C114.648 86.2453 113.86 81.6414 113.86 76.4069C113.86 71.2355 114.679 66.6631 116.317 62.6899C117.955 58.6537 120.129 55.2796 122.837 52.5677C125.609 49.7928 128.759 47.68 132.287 46.2294C135.878 44.7789 139.626 44.0536 143.532 44.0536C147.627 44.0536 151.28 44.8735 154.493 46.5132C157.706 48.0899 160.415 49.982 162.62 52.1893L154.115 62.5953C152.603 61.2709 151.028 60.1988 149.39 59.3789C147.816 58.496 145.989 58.0545 143.91 58.0545C142.083 58.0545 140.35 58.4645 138.713 59.2843C137.138 60.1042 135.72 61.2709 134.46 62.7845C133.263 64.2981 132.287 66.1586 131.531 68.3659C130.838 70.5733 130.492 73.0644 130.492 75.8393C130.492 81.6414 131.688 86.0876 134.082 89.1779C136.539 92.2682 139.752 93.8133 143.721 93.8133C146.115 93.8133 148.225 93.3088 150.052 92.2997C151.942 91.2276 153.548 89.9662 154.871 88.5157L163.376 98.7325C160.73 101.76 157.674 104.03 154.21 105.544C150.808 107.057 147.123 107.814 143.154 107.814Z" fill="#2F80ED"/>
<path d="M183.214 107.814C180.442 107.814 178.111 107.404 176.221 106.584C174.394 105.701 172.914 104.472 171.78 102.895C170.646 101.318 169.827 99.4578 169.323 97.3135C168.882 95.1062 168.661 92.6781 168.661 90.0293V40.8372H184.915V90.5969C184.915 92.2366 185.198 93.3403 185.765 93.9079C186.395 94.4755 186.993 94.7593 187.56 94.7593C187.875 94.7593 188.127 94.7593 188.316 94.7593C188.568 94.7593 188.883 94.6962 189.261 94.5701L191.151 106.49C190.269 106.868 189.167 107.183 187.844 107.436C186.584 107.688 185.04 107.814 183.214 107.814Z" fill="#2F80ED"/>
<path d="M216.84 107.814C213.375 107.814 210.162 107.278 207.201 106.206C204.24 105.071 201.658 103.463 199.453 101.381C197.311 99.237 195.61 96.6198 194.35 93.5295C193.09 90.4392 192.46 86.939 192.46 83.0289C192.46 79.1818 193.09 75.7447 194.35 72.7175C195.673 69.6273 197.374 67.01 199.453 64.8657C201.595 62.7215 204.02 61.0817 206.729 59.9465C209.438 58.8113 212.241 58.2437 215.139 58.2437C218.604 58.2437 221.627 58.8429 224.21 60.0411C226.793 61.2394 228.935 62.8791 230.636 64.9603C232.337 67.0415 233.597 69.4696 234.416 72.2445C235.298 75.0195 235.739 77.9836 235.739 81.1369C235.739 82.5875 235.644 83.9434 235.455 85.2047C235.329 86.466 235.203 87.3805 235.077 87.9481H208.146C208.902 90.7861 210.257 92.7727 212.209 93.9079C214.162 94.98 216.462 95.5161 219.108 95.5161C220.745 95.5161 222.32 95.2954 223.832 94.8539C225.407 94.3494 227.045 93.6241 228.746 92.6781L234.038 102.327C231.455 104.156 228.588 105.544 225.439 106.49C222.352 107.373 219.486 107.814 216.84 107.814ZM207.957 77.3529H221.942C221.942 75.524 221.47 73.9473 220.525 72.6229C219.643 71.2355 217.974 70.5417 215.517 70.5417C213.69 70.5417 212.083 71.0778 210.698 72.1499C209.375 73.2221 208.461 74.9564 207.957 77.3529Z" fill="#2F80ED"/>
<path d="M256.161 106.679C248.763 106.679 242.766 100.682 242.766 93.2835V59.3789H252.109C254.337 59.3789 256.224 61.0211 256.532 63.2276L257.129 67.5145H257.507C259.271 64.2981 261.35 61.9647 263.744 60.5141C266.201 59.0005 268.594 58.2437 270.925 58.2437C272.374 58.2437 273.54 58.3383 274.422 58.5275C275.303 58.6537 276.091 58.8744 276.784 59.1897L274.138 73.1905C273.256 73.0013 272.406 72.8437 271.587 72.7175C270.831 72.5283 269.917 72.4337 268.846 72.4337C267.145 72.4337 265.35 73.0329 263.46 74.2311C261.633 75.3663 260.153 77.416 259.019 80.3801V106.679H256.161Z" fill="#2F80ED"/>
<path d="M293.767 106.679C286.369 106.679 280.372 100.682 280.372 93.2835V40.8372H296.247V75.8393H296.625L305.643 64.4562C308.184 61.249 312.051 59.3789 316.143 59.3789H327.241L310.421 79.0557L328.186 106.679H318.453C313.609 106.679 309.142 104.063 306.772 99.839L301.161 89.8401L296.247 95.3269V106.679H293.767Z" fill="#2F80ED"/>
<path fill-rule="evenodd" clip-rule="evenodd" d="M2.22086 52.9712C0.845943 53.7706 0 55.241 0 56.8314V92.0191C0 93.6095 0.845943 95.0798 2.22086 95.8792L48 122.495V122.355L93.7791 95.7396C95.154 94.9403 95.9999 93.4699 95.9999 91.8795V58.1429C95.9999 56.4212 94.1336 55.3475 92.6453 56.2128L50.2208 80.8782C48.8459 81.6775 47.9999 83.1479 47.9999 84.7383V91.2391L3.72001 65.495L48 39.7508V30.2359C48 28.5143 46.1337 27.4405 44.6453 28.3058L2.22086 52.9712ZM62.2296 85.1954C61.8859 85.3953 61.6744 85.7629 61.6744 86.1605V89.0132C61.6744 89.4436 62.141 89.7121 62.5131 89.4958L85.1192 76.3527C85.4629 76.1528 85.6744 75.7852 85.6744 75.3876V72.5349C85.6744 72.1045 85.2078 71.836 84.8357 72.0524L62.2296 85.1954Z" fill="#2F80ED"/>
<path d="M32 75.436C32 73.8456 32.8459 72.3752 34.2208 71.5759L76.6453 46.9105C78.1336 46.0452 80 47.1189 80 48.8406V58.3554L32 86.2624V75.436Z" fill="#2F80ED"/>
<path d="M16 66.1337C16 64.5433 16.8459 63.0729 18.2208 62.2736L60.6453 37.6082C62.1337 36.7429 64 37.8166 64 39.5383V49.0531L16 76.9601V66.1337Z" fill="#2F80ED"/>
<path d="M143.154 107.814C139.248 107.814 135.5 107.183 131.909 105.922C128.381 104.598 125.263 102.643 122.554 100.057C119.908 97.4081 117.798 94.1286 116.223 90.2185C114.648 86.2453 113.86 81.6414 113.86 76.4069C113.86 71.2355 114.679 66.6631 116.317 62.6899C117.955 58.6537 120.129 55.2796 122.837 52.5677C125.609 49.7928 128.759 47.68 132.287 46.2294C135.878 44.7789 139.626 44.0536 143.532 44.0536C147.627 44.0536 151.28 44.8735 154.493 46.5132C157.706 48.0899 160.415 49.982 162.62 52.1893L154.115 62.5953C152.603 61.2709 151.028 60.1988 149.39 59.3789C147.816 58.496 145.989 58.0545 143.91 58.0545C142.083 58.0545 140.35 58.4645 138.713 59.2843C137.138 60.1042 135.72 61.2709 134.46 62.7845C133.263 64.2981 132.287 66.1586 131.531 68.3659C130.838 70.5733 130.492 73.0644 130.492 75.8393C130.492 81.6414 131.688 86.0876 134.082 89.1779C136.539 92.2682 139.752 93.8133 143.721 93.8133C146.115 93.8133 148.225 93.3088 150.052 92.2997C151.942 91.2276 153.548 89.9662 154.871 88.5157L163.376 98.7325C160.73 101.76 157.674 104.03 154.21 105.544C150.808 107.057 147.123 107.814 143.154 107.814Z" fill="#2F80ED"/>
<path d="M183.214 107.814C180.442 107.814 178.111 107.404 176.221 106.584C174.394 105.701 172.914 104.472 171.78 102.895C170.646 101.318 169.827 99.4578 169.323 97.3135C168.882 95.1062 168.661 92.6781 168.661 90.0293V40.8372H184.915V90.5969C184.915 92.2366 185.198 93.3403 185.765 93.9079C186.395 94.4755 186.993 94.7593 187.56 94.7593C187.875 94.7593 188.127 94.7593 188.316 94.7593C188.568 94.7593 188.883 94.6962 189.261 94.5701L191.151 106.49C190.269 106.868 189.167 107.183 187.844 107.436C186.584 107.688 185.04 107.814 183.214 107.814Z" fill="#2F80ED"/>
<path d="M216.84 107.814C213.375 107.814 210.162 107.278 207.201 106.206C204.24 105.071 201.658 103.463 199.453 101.381C197.311 99.237 195.61 96.6198 194.35 93.5295C193.09 90.4392 192.46 86.939 192.46 83.0289C192.46 79.1818 193.09 75.7447 194.35 72.7175C195.673 69.6273 197.374 67.01 199.453 64.8657C201.595 62.7215 204.02 61.0817 206.729 59.9465C209.438 58.8113 212.241 58.2437 215.139 58.2437C218.604 58.2437 221.627 58.8429 224.21 60.0411C226.793 61.2394 228.935 62.8791 230.636 64.9603C232.337 67.0415 233.597 69.4696 234.416 72.2445C235.298 75.0195 235.739 77.9836 235.739 81.1369C235.739 82.5875 235.644 83.9434 235.455 85.2047C235.329 86.466 235.203 87.3805 235.077 87.9481H208.146C208.902 90.7861 210.257 92.7727 212.209 93.9079C214.162 94.98 216.462 95.5161 219.108 95.5161C220.745 95.5161 222.32 95.2954 223.832 94.8539C225.407 94.3494 227.045 93.6241 228.746 92.6781L234.038 102.327C231.455 104.156 228.588 105.544 225.439 106.49C222.352 107.373 219.486 107.814 216.84 107.814ZM207.957 77.3529H221.942C221.942 75.524 221.47 73.9473 220.525 72.6229C219.643 71.2355 217.974 70.5417 215.517 70.5417C213.69 70.5417 212.083 71.0778 210.698 72.1499C209.375 73.2221 208.461 74.9564 207.957 77.3529Z" fill="#2F80ED"/>
<path d="M256.161 106.679C248.763 106.679 242.766 100.682 242.766 93.2835V59.3789H252.109C254.337 59.3789 256.224 61.0211 256.532 63.2276L257.129 67.5145H257.507C259.271 64.2981 261.35 61.9647 263.744 60.5141C266.201 59.0005 268.594 58.2437 270.925 58.2437C272.374 58.2437 273.54 58.3383 274.422 58.5275C275.303 58.6537 276.091 58.8744 276.784 59.1897L274.138 73.1905C273.256 73.0013 272.406 72.8437 271.587 72.7175C270.831 72.5283 269.917 72.4337 268.846 72.4337C267.145 72.4337 265.35 73.0329 263.46 74.2311C261.633 75.3663 260.153 77.416 259.019 80.3801V106.679H256.161Z" fill="#2F80ED"/>
<path d="M293.767 106.679C286.369 106.679 280.372 100.682 280.372 93.2835V40.8372H296.247V75.8393H296.625L305.643 64.4562C308.184 61.249 312.051 59.3789 316.143 59.3789H327.241L310.421 79.0557L328.186 106.679H318.453C313.609 106.679 309.142 104.063 306.772 99.839L301.161 89.8401L296.247 95.3269V106.679H293.767Z" fill="#2F80ED"/>
<path d="M484.989 38.8607H532.141V42.5636H489.312V70.4292H529.587V74.1321H489.312V104.726H532.632V108.429H484.989V38.8607ZM536.365 38.8607H541.376L563.577 69.4547L586.268 38.8607L617.133 0L566.426 72.6703L592.556 108.429H587.348L563.577 75.8858L539.707 108.429H534.598L560.924 72.6703L536.367 38.8607H536.365ZM594.423 42.5636V38.8607H648.155V42.5636H623.402V108.427H619.078V42.5636H594.423ZM426 38.8607H431.403L505.905 149L475.116 108.429L430.518 44.1221L430.322 108.429H426V38.8607ZM647.722 103.608C646.837 103.608 646.175 102.932 646.175 102.059C646.175 101.185 646.837 100.509 647.72 100.509C648.614 100.509 649.266 101.185 649.266 102.059C649.266 102.932 648.614 103.608 647.72 103.608H647.722ZM651.967 99.5313H654.281C654.314 100.77 655.229 101.601 656.574 101.601C658.077 101.601 658.928 100.708 658.928 99.0324V88.4261H661.283V99.0424C661.283 102.059 659.517 103.797 656.594 103.797C653.852 103.797 651.969 102.111 651.969 99.5313H651.967ZM664.362 99.3978H666.696C666.896 100.821 668.305 101.726 670.334 101.726C672.225 101.726 673.613 100.758 673.613 99.4279C673.613 98.2848 672.731 97.5973 670.722 97.1301L668.767 96.6628C666.024 96.0287 664.772 94.7171 664.772 92.5128C664.772 89.8395 666.979 88.0607 670.29 88.0607C673.371 88.0607 675.623 89.8395 675.758 92.3659H673.466C673.246 90.9843 672.027 90.1199 670.26 90.1199C668.398 90.1199 667.159 91.0043 667.159 92.3559C667.159 93.4272 667.958 94.0413 669.935 94.4985L671.605 94.904C674.717 95.6216 676 96.8698 676 99.1259C676 101.996 673.749 103.797 670.155 103.797C666.791 103.797 664.53 102.079 664.362 99.3962V99.3978Z" fill="black"/>
<path d="M365 87L377 75M377 75L389 63M377 75L365 63M377 75L389 87" stroke="#111827" stroke-width="2" stroke-linecap="square" stroke-linejoin="round"/>
</svg>
